<?xml version="1.0" encoding="utf-8"?>
<!-- Generator: Adobe Illustrator 17.1.0, SVG Export Plug-In . SVG Version: 6.00 Build 0)  -->
<!DOCTYPE svg PUBLIC "-//W3C//DTD SVG 1.1//EN" "http://www.w3.org/Graphics/SVG/1.1/DTD/svg11.dtd">
<svg version="1.1" id="Layer_1" xmlns="http://www.w3.org/2000/svg" xmlns:xlink="http://www.w3.org/1999/xlink" x="0px" y="0px"
	 viewBox="0 0 167.5 28" enable-background="new 0 0 167.5 28" xml:space="preserve">
<g>
	<path fill="#003630" d="M8.7,22.8l-4.4-7.5L3.1,17v2H0.3V0.1h2.8v12.3l2.4-3.5h3.3l-2.8,3.9l5.8,10H8.7z M21.2,20.1h5.5v2.6H12.8
		v-2.6h5.5V7.8H13V5.1h13.5v2.6h-5.3C21.2,7.8,21.2,20.1,21.2,20.1z M34.9,24.3c1.6,0,2.9-1,2.9-3.6h2.8c0,4.3-2.6,6.2-5.7,6.2
		s-5.7-2.2-5.7-5.5V6.5c0-3.3,2.6-5.5,5.7-5.5c3.2,0,5.7,2,5.7,6.2h-2.8c0-2.6-1.3-3.6-2.9-3.6s-2.9,1.2-2.9,3.1v14.5
		C31.9,23,33.2,24.3,34.9,24.3z M51.5,22.8l-4.4-7.5L45.9,17v10.8h-2.8V8.9h2.8v3.5L51,5.1h3.3l-5.5,7.7l5.8,10
		C54.7,22.8,51.5,22.8,51.5,22.8z M60.8,7.3c3.2,0,5.7,2.4,5.7,5.5v2.3c0,3.1-2.6,5.5-5.7,5.5c-3.2,0-5.7-2.4-5.7-5.5v-2.3
		C55,9.6,57.6,7.3,60.8,7.3z M60.8,18c1.6,0,2.9-1.2,2.9-2.9v-2.3c0-1.7-1.3-2.9-2.9-2.9c-1.6,0-2.9,1.2-2.9,2.9v2.3
		C57.8,16.7,59.1,18,60.8,18z M76,7.8h-3.6v5.4h3.1v2.6h-3.1v12h-2.8V5.1H76V7.8z M91,7.8h-9.9v5.4H90v2.6h-8.9V19h-2.8V5.1H91
		C91,5.1,91,7.8,91,7.8z"/>
	<path fill="#00BF7C" d="M86.8,19.8H90v3h-3.2V19.8z M106.2,22.9l-1.5-4h-7.9l-1.5,4h-3.2l6.6-17.6h3.9l6.7,17.6
		C109.3,22.9,106.2,22.9,106.2,22.9z M97.8,16.2h5.8L100.7,8L97.8,16.2z M119.4,20.2h5.5v2.6H111v-2.6h5.5V7.9h-5.4V5.2h13.5v2.6
		h-5.3C119.4,7.9,119.4,20.2,119.4,20.2z"/>
</g>
<g>
	<path fill="#003630" d="M136.3,13.1h4.2c1.5,0,2.3,0.9,2.3,2.5c0,1.3-0.6,2-1.6,2.1v0.2c1.1,0,1.9,0.9,1.9,2.2
		c0,1.6-0.9,2.8-2.3,2.8h-4.6V13.1z M138,17.2h2c0.6,0,0.9-0.3,0.9-0.9v-0.7c0-0.7-0.3-0.9-0.9-0.9h-2V17.2z M138,21.4h2.3
		c0.6,0,0.9-0.3,0.9-1v-0.7c0-0.7-0.3-1-0.9-1H138V21.4z"/>
	<path fill="#003630" d="M144.7,22.9v-9.8h1.8v8.3h3.4v1.5H144.7z"/>
	<path fill="#003630" d="M150.6,18c0-3.6,1.5-5.1,3.8-5.1c2.3,0,3.8,1.5,3.8,5.1c0,3.6-1.5,5.1-3.8,5.1
		C152.1,23.1,150.6,21.6,150.6,18z M156.4,19.2v-2.4c0-1.5-0.7-2.3-2-2.3s-2,0.8-2,2.3v2.4c0,1.5,0.7,2.3,2,2.3
		S156.4,20.7,156.4,19.2z"/>
	<path fill="#003630" d="M165.5,21.4h-0.2c-0.2,1-0.9,1.7-2.3,1.7c-2.2,0-3.5-1.8-3.5-5c0-3.6,1.5-5.1,3.8-5.1
		c1.7,0,2.8,0.8,3.5,2.2l-1.4,0.8c-0.3-0.9-0.9-1.5-2-1.5c-1.2,0-2,0.8-2,2.3v2.4c0,1.5,0.7,2.3,2,2.3c1.1,0,2-0.6,2-1.7v-0.7h-1.7
		v-1.5h3.4v5.3h-1.5V21.4z"/>
</g>
</svg>
